<?xml version="1.0" encoding="UTF-8"?>
<svg id="Layer_2" data-name="Layer 2" xmlns="http://www.w3.org/2000/svg" viewBox="0 0 968 303.02">
  <defs>
    <style>
      .cls-1 {
        fill: #8fbfc1;
      }
    </style>
  </defs>
  <g id="Layer_1-2" data-name="Layer 1">
    <g>
      <path class="cls-1" d="M957.47,202.5h-.02c-.54,0-.97-.04-1.34-.11-14.14-2.9-29.88-21.04-32.24-23.85v-.02l-.28-.33c-2.77-3.24-17.09-19.71-27.38-25.6-2.85-1.63-5.93-2.46-9.17-2.46-7.38,0-13.56,4.31-15.3,5.65-.55.39-1.06.87-1.73,1.54l-.02.03c-.74.8-1.49,1.37-2.24,1.7-.23.09-.48.14-.73.14-.61,0-1.2-.26-1.65-.71-8.01-8.11-15.34-9.81-20.09-9.81-.65,0-1.3.03-1.93.09-5.07.48-8.44,2.65-9.41,3.35-2.95,1.74-13.43,8.63-27.34,25.71-3.57,4.39-8.1,8.42-13.48,11.97l-.03.02-.03.02c-.16.12-.32.24-.53.36h-.02c-.54.36-1.09.69-1.62,1.01-8.85,4.93-20.83,10.3-26.61,11.03-1.5.2-2.83.3-4.05.3-1.99,0-3.69-.26-5.21-.79-4.51-1.56-5.66-6.06-3.53-13.75.11-.2.21-.41.29-.63l.1-.27-.06-.24c.98-3.23,2.29-6.32,3.36-8.81l.12-.28c.41-.94.32-2.02-.24-2.89-.55-.85-1.47-1.37-2.48-1.38-.36,0-.84.02-1.4.16-.91.2-1.72.87-2.1,1.77-1.18,2.74-2.66,6.37-3.76,10.16-1.22,1.54-5.13,5.34-10.91,9.49-5.09,3.61-13.29,7.25-20.12,7.25-.35,0-.7,0-1.05-.03-6.03-.27-10.84-5.16-15.93-10.33-5.92-6.01-12.63-12.83-22.34-12.83-5.17,0-10.69,1.87-16.82,5.7,1.87-6.09,2.95-11.87.56-15.18-1.21-1.68-3.19-2.53-5.87-2.53-.26,0-.53,0-.8.02-3.96.16-9.77,4.18-18.09,12.57,1.8-3.64,3.29-6.89,5.41-11.68.69-1.61.73-2.88.13-3.79-.37-.57-1.18-1.24-2.89-1.24-3.17,0-8.39,2.41-9.82,4.54-9.17,12.58-33.87,35.02-50.49,35.02-.54,0-1.08-.02-1.61-.07-2.53-.21-4.41-1.05-5.56-2.49-1.41-1.76-1.87-4.53-1.37-8.23.67-4.95,3.26-10.59,4.65-13.62v-.02c.46-1.03.36-2.21-.26-3.15-.61-.93-1.65-1.49-2.76-1.49-.12,0-.25,0-.38.02-.2.02-.39.06-.6.1l-.16.03c-.84.19-1.58.71-2.04,1.45-4.9,7.83-26.97,27.71-35.02,27.71-1.16,0-2.51-.36-2.58-3.18-.1-4.28,2.54-12.68,7.83-24.97.09-.21.17-.4.24-.57.15-.36.27-.64.35-.8l.02-.04c.21-.48.41-.94.61-1.39.21-.48.41-.94.6-1.37l.59-1.32c.39-.84.68-1.5.91-2.02.45-1.03.35-2.22-.27-3.17-.6-.91-1.6-1.46-2.67-1.46-.04,0-.07,0-.11,0h-.1c-1.21.06-2.32.84-2.81,1.99-.46,1.06-1.15,2.55-1.95,4.27-.6.41-1.04.96-1.29,1.63-.98,2.4-23.83,56.93-81.86,56.93-1.62,0-3.28-.04-4.92-.13-4.19-.27-8.49-.4-12.8-.4-8.58,0-17.34.53-26.11,1.57,17.76-15.53,57.63-51.62,91.46-91.01,20.08-23.38,34.89-44.31,44.01-62.2,5.3-10.4,8.74-19.92,10.22-28.3,1.63-9.19.95-17.26-2.01-23.98v-.02s-.02-.02-.02-.02c-4.18-8.36-12.89-14.52-25.9-18.3-10.4-3.02-23.59-4.55-39.22-4.55-27.39,0-53.8,4.77-56.73,5.32-.03,0-.14.03-.31.06-13.96,2.65-139,26.8-231.14,59.13-69.74,24.47-126.74,28.12-154.51,28.12-10.15,0-15.82-.5-15.88-.51-.66-.06-16.27-1.67-17.66-14.24v-.14c-.07-.63-.13-1.23-.13-1.79,0-10.29,10.45-11.5,10.89-11.55,1.96-.21,3.33-1.93,3.12-3.91-.19-1.78-1.69-3.12-3.47-3.12-.14,0-.29,0-.42.03-4.06.44-9.71,2.55-13.4,7.15-3.02,3.76-4.23,8.51-3.6,14.11,1.61,14.62,16.41,19.78,24.01,20.47.24.02,6.05.54,16.53.54,28.25,0,86.18-3.7,156.84-28.49,20.36-7.14,43.63-14.35,69.19-21.42,7.7-2.16,15.67-4.32,23.71-6.42,72.81-19.05,137-30.98,137.51-31.06h.06c2.93-.54,29.4-5.21,56.34-5.21,14.32,0,26.32,1.31,35.67,3.91,11.3,3.13,18.74,8.15,22.13,14.91,4.3,9.78,2.7,23.15-4.76,39.73-6.46,14.34-17.37,31.23-32.43,50.19-.05.05-.08.1-.11.14-41.37,52.09-100.99,104.02-112.53,113.9l-.09.08s-.07.06-.1.08c-.05.04-.11.08-.16.14l-.06.06s-.07.06-.1.09c-15.67,2.76-30.73,7.14-42.45,12.34-11.56,5.13-19.17,10.75-21.44,15.8-1.45,3.18-1.5,6.45-.12,8.98.89,1.6,2.77,3.63,6.73,4.22.67.1,1.35.14,2.07.14,6.03,0,14.72-3.33,25.14-9.62,10.13-6.12,21.69-14.9,33.44-25.4,11.7-1.92,23.6-2.9,35.36-2.9,4.28,0,8.59.13,12.8.39,1.49.07,3.44.16,5.39.16,17.19,0,33.09-4.46,47.27-13.23,9.72-6.01,18.53-13.96,26.21-23.65-.05.66-.08,1.29-.08,1.89,0,6.33,2.73,9.53,8.12,9.53,8.07,0,21.32-9.49,31.17-19.05-.14.73-.26,1.46-.35,2.23-.62,4.98.35,9.2,2.81,12.22,2.29,2.81,5.73,4.42,10.21,4.78.64.06,1.3.09,1.97.09,10.47,0,22.11-6.95,30.03-12.79,8-5.89,16.04-13.46,22.11-20.75-2.75,8.61-12.08,24.66-14.67,28.85-.54.81-.6,1.69-.19,2.47.67,1.25,2.41,1.9,3.78,1.9,1.01,0,1.78-.35,2.16-.99,2.38-3.5,8.89-11.92,15.97-19.76,8.09-8.97,14.3-14.19,17.06-14.33.04,0,.09,0,.13,0,.4,0,.56.14.67.29.32.43.72,1.75-.14,5.73-.61,2.84-1.64,6.07-2.55,8.92-.91,2.84-1.62,5.09-1.69,6.23l-.03.57.49.29c.81.48,1.65.72,2.49.72,2.1,0,3.87-1.49,5.42-2.8.59-.49,1.14-.96,1.7-1.34,6.05-4.33,11.28-6.44,15.99-6.44,7.44,0,12.62,5.28,18.11,10.87,5.84,5.96,11.89,12.12,21.1,12.12h.15c9.24,0,18.52-4.43,24.11-8.56,1.89-1.35,3.75-2.81,5.56-4.37.32,6.09,3.33,10.14,8.97,12.06.76.28,1.57.51,2.48.68.29.2.79.25,1.87.35.81.08,2.11.17,3.67.17,2.78,0,5.36-.28,7.67-.84,3.98-.96,12.04-3.34,21.4-8.55,8.92-4.97,16.29-10.97,21.9-17.85,14.17-17.39,24.44-23.5,25.44-24.07h.02s.14-.09.14-.09c.06-.04.13-.08.2-.12.05-.03.11-.07.16-.1l.06-.04.05-.04s2.81-2.19,7.33-2.19c5.07,0,10.25,2.63,15.38,7.84,1.72,1.68,4.07,2.65,6.46,2.65,1.15,0,2.25-.22,3.27-.64,1.56-.63,3.1-1.73,4.56-3.27l.02-.02c.36-.4.62-.66.87-.86,1.71-1.28,6.2-4.25,11.24-4.25,2.1,0,4.08.52,5.88,1.56,10.07,5.77,25.47,23.98,25.62,24.16l.05.06c3.16,3.81,19.76,22.95,36.19,26.32.73.18,1.55.26,2.59.27.92.04,1.75.12,2.49.23.21.03.28.18.3.24.03.09.04.21-.08.34-2.13,2.2-6.27,5.56-10.54,8.55l-.03.02c-1.77,1.16-17.92,11.5-40,18.76-14.72,4.84-28.98,7.29-42.38,7.29-14.18,0-27.26-2.8-38.86-8.31-12.94-6.29-25.7-16.16-24.08-20.82.17-.48,2.31-4.83,23.88-8.2,11.86-1.85,23.31-2.41,23.41-2.42,0,0,.14,0,.27-.01,4.9-.19,9.52-.24,12.54-.24,13.24,0,31.81.74,45.06,4.27,6.14,1.67,12.73,2.53,19.58,2.55,3.78,0,6.87-.17,9.19-.49,1.55-.19,2.76-1.46,2.88-3.03.12-1.59-.84-3.02-2.35-3.47-.05-.02-.17-.05-.36-.11-6.11-1.9-26.56-8.36-33.41-11.52-.33-.16-.69-.34-1.09-.54-.59-.29-1.25-.62-1.98-.97l-.1-.05c-7.31-3.65-20.93-10.43-36.71-11.52-.95-.07-1.92-.1-2.88-.1-6.49,0-13.07,1.48-19.56,4.41-.06.02-.11.04-.15.06-.03.01-.06.02-.09.04-.44.17-1.41.61-2.74,1.22-4.29,1.96-12.29,5.61-16.81,6.78-.78.22-1.53.38-2.31.51h-.04c-.27.06-.58.12-.91.18-.56.11-1.2.23-1.75.36-1.95.43-3.78.95-5.31,1.41h-.02c-2.61.84-4.92,1.66-7.06,2.52-1.08.41-2.12.86-3.13,1.3-3.17,1.4-6.42,3.07-9.68,4.95-1.54.92-3.04,1.83-4.49,2.71l-1.21.74c-.99.61-2.06,1.24-3.24,1.93-5.77,3.29-11.99,6.37-18.49,9.16-7.11,3.01-13.46,5.31-19.39,7.03h-.03c-2.34.77-4.77,1.38-7.12,1.98-.94.24-1.91.48-2.86.73-1.1.26-2.24.49-3.35.71-.57.11-1.14.23-1.71.35l-.72.15c-1.47.31-2.87.6-4.31.79h-.03c-3.21.53-6.55.95-10.16,1.28l.67-.84.02-.03c1.05-1.43,2.05-2.72,2.97-3.85.84-1.03,1.66-1.99,2.51-2.93l.07-.08.05-.09c.51-.91.59-1.91.22-2.95v-.03c-.44-1.09-1.36-1.69-2.59-1.69-.73,0-1.37.2-1.85.57l-.02.02-.02.02c-.84.75-1.81,1.83-2.98,3.29-1.09,1.37-2.32,3.15-3.75,5.45l-1.93,2.69-.02.03c-.14.22-.28.43-.42.64-.06.09-.12.18-.17.26-2.13.09-4.26.14-6.34.14-5.99,0-11.85-.39-17.41-1.15h-.06s-.05,0-.05,0h-.03c-.06-.01-.13-.02-.23-.02-1.5,0-2.74,1.06-2.97,2.54-.11.77.09,1.54.56,2.17.48.63,1.17,1.04,1.94,1.15,6.23.88,12.72,1.32,19.28,1.32.48,0,.96,0,1.44,0-1.79,3.03-3.53,6.05-5.17,8.98-1.86,3.32-4.17,6.3-6.89,8.86-4.51,4.25-11.62,9.62-19.91,11.06-.94,0-1.61-.18-1.98-.5-.37-.33-.62-1.02-.7-1.94-.29-3.53,1.95-8.76,6.65-15.53.38-.45.54-1.07.48-1.84-.15-1.79-1.21-2.81-2.91-2.81-1.03,0-1.84.44-2.29,1.24l-1.95,2.97-.02.03c-1.48,2.47-3.07,4.84-4.86,7.24-1.68,2.2-3.34,4.08-4.96,5.59-1.6,1.53-3.13,2.75-4.57,3.63-1.35.83-2.52,1.25-3.49,1.25-.05,0-.07,0-.07,0-.03-.03-.12-.19-.15-.59v-.04c-.24-2.04.75-6.3,6.79-14.96.28-.32.57-.88.49-1.84-.15-1.71-1.21-2.7-2.91-2.7-1.25,0-1.87.58-2.17,1.08-.58.79-1.24,1.72-1.87,2.66-.32.26-.89.81-2.16,2.03-2.98,2.87-8.52,8.22-11.72,10.17-4.56,2.78-8.27,4.19-11.04,4.19-.96,0-1.67-.17-2.04-.5l-.03-.03c-.25-.2-.56-.69-.67-1.9-.06-.68.07-1.61.37-2.76.34-1.29.8-2.61,1.37-3.93.59-1.36,1.3-2.78,2.19-4.35.88-1.58,1.85-3.08,2.76-4.45.45-.65.47-1.37.45-1.87v-.03s0-.03,0-.03c-.1-1.02-.73-1.87-1.77-2.37-.4-.21-.82-.31-1.22-.31-.73,0-1.41.33-2,.98l-.03.03-1.09,1.48-.42.57c-1.8-2.11-4.15-3.18-6.98-3.18-4.09,0-8.47,2.33-13.01,6.93-.33.21-.99.73-2.79,2.2-1.54,1.26-3.47,2.82-4.74,3.74-2.52,1.81-5.34,3.53-8.37,5.12-5.9,3.16-10.54,4.77-13.78,4.77-1.76,0-2.44-.33-2.68-.52-.39-.32-.64-.97-.72-1.92-.11-1.34.08-2.65.57-3.97.48.02.95.04,1.4.04,4.25,0,7.8-1.01,10.56-3.01,3.34-2.42,4.87-4.75,4.66-7.15-.16-1.75-.85-3.15-2.07-4.15-1.22-1.04-2.7-1.55-4.51-1.55-4.1,0-7.98,2.24-11.51,6.66-1.11,1.37-1.96,2.64-2.61,3.88-1.63.22-3.59.52-5.97.93-.5.08-.98.17-1.49.26l-.29.05c-1,.19-2.03.39-3.02.59l-.38.08-.14.03c1.81-3.93,4.2-11.02,1.88-14.93-1.06-1.8-2.92-2.71-5.51-2.71-4.48,0-9.83,2.98-16.58,9.27l18.08-33.37c.69-1.25.15-3-1.19-3.9-.54-.37-1.15-.56-1.75-.56-.93,0-1.73.46-2.16,1.24l-10.13,18.67-17.46,32.23-3.61,6.65c-.44.78-.41,1.75.06,2.61.07.16.16.3.29.44.06.09.13.17.2.26.02.02.03.04.04.06.1.11.21.22.34.32.07.07.14.13.19.16h.01s.06.06.06.06c.48.34,1.03.53,1.63.56h.02s.07,0,.1,0c.93,0,1.74-.46,2.18-1.23l3.35-6.16c5.59-6.64,18.55-22,26.18-22h.09c.75,0,1,.28,1.13.53,1.25,2.32-2.59,10.52-4.32,13.32-.08.02-.16.04-.24.06-8.43,2.15-18.06,5.31-17.76,10.74.12,2.59,1.85,4.21,4.5,4.21.14,0,.29,0,.44-.01,6.43-.15,12.53-5.4,16.18-10.36.11-.03.23-.06.35-.1.08-.02.16-.04.24-.07.19-.05.38-.1.58-.16.06-.02.11-.03.17-.05.23-.06.46-.12.7-.18.09-.02.2-.05.29-.08.17-.04.33-.09.5-.13.12-.03.24-.06.36-.09.16-.04.32-.08.49-.12.12-.03.25-.06.37-.09.17-.04.34-.08.51-.12.13-.03.26-.06.39-.09.17-.04.34-.08.52-.12.13-.03.27-.06.4-.09.17-.04.35-.08.53-.12.14-.03.28-.06.42-.09.18-.04.36-.08.54-.11.14-.03.28-.06.42-.09.18-.04.37-.08.55-.11.13-.03.27-.05.4-.08.19-.04.39-.07.58-.11.13-.02.26-.05.39-.07.21-.04.41-.07.62-.11.11-.02.23-.04.34-.06.24-.04.48-.08.72-.12.07-.01.15-.02.22-.04.31-.05.62-.09.93-.13.07,0,.14-.02.22-.03.13-.02.27-.03.4-.05-.26,1.34-.33,2.73-.2,4.12.44,5.2,3.67,7.96,9.35,7.96,3.83,0,8.95-1.67,15.67-5.11h.02c1.89-1.03,3.72-2.1,5.46-3.2-.25,1.22-.32,2.38-.22,3.51.31,3.57,2.39,5.46,6.02,5.46s8.9-3.44,16.17-10.51c0,.09,0,.18-.01.27-.05.68-.02,1.21,0,1.6v.02c.44,5.1,3.44,7.8,8.69,7.8,5.62,0,11.86-2.83,18.6-8.42-.08.88-.08,1.71.02,2.49v.02c.26,1.72.94,3.14,2.03,4.21,1.11,1.13,2.51,1.71,4.16,1.71,3.58,0,7.53-2.2,12.03-6.7.62,4.82,3.61,7.37,8.65,7.37,4.65,0,10.28-2.58,17.14-7.86-3.27,6.87-5.74,12.78-7.5,17.96v.02c-.67,2.16-.64,3.69.09,4.69.55.75,1.43,1.12,2.61,1.12,1.75,0,3.15-1.57,4.28-4.78.5-1.03.42-1.98-.22-2.74,2.2-6.12,5.18-12.83,8.86-19.95,3.62-7.02,8.02-14.82,13.09-23.21,4.94-.26,10-.79,15.46-1.62,1.36-.17,2.71-.43,4.01-.69.43-.08.86-.17,1.3-.25.58-.12,1.16-.23,1.74-.34,1.15-.22,2.34-.45,3.52-.72h.03c1.03-.27,2.08-.53,3.1-.77,2.39-.58,4.86-1.18,7.25-1.96,6.19-1.74,12.78-4.08,20.13-7.16,6.7-2.81,13.17-5.95,19.2-9.34,1.83-1,3.64-2.1,5.4-3.16,1.27-.77,2.47-1.5,3.67-2.19,2.99-1.72,6.03-3.25,9.02-4.54,1.52-.65,3.09-1.27,4.65-1.83l.2-.07.02-.02c1.29-.46,2.94-1.03,4.61-1.53,1.44-.43,3.13-.92,4.78-1.26.41-.08.77-.15,1.15-.21.41-.07.83-.15,1.33-.25.99-.19,1.89-.37,2.78-.61,4.93-1.24,9.87-3.08,15.08-5.6,1.66-.79,3.28-1.62,4.97-2.54l.08-.04c.27-.12.49-.29.66-.43,5.57-2.57,11.24-3.87,16.87-3.87.8,0,1.6.03,2.38.08,14.5,1.02,27.36,7.41,34.27,10.84l.05.02c1.18.61,2.28,1.15,3.26,1.61,2.36,1.08,6.01,2.46,9.69,3.76-.23-.06-.46-.12-.69-.18-14.07-3.78-33.17-4.57-46.71-4.57-4.35,0-8.65.08-12.79.25-.19,0-.46.02-.46.02h-.02c-.06,0-.17.02-.33.03-8.27.51-16.69,1.39-23.72,2.48-10.28,1.6-17.91,3.66-22.68,6.14-3.53,1.83-5.59,3.88-6.48,6.45-2.06,5.95,2.21,12.77,12.7,20.28,6.8,4.84,13.92,8.4,14.78,8.78,11.05,5.26,23.26,8.25,36.29,8.89,1.97.09,3.82.14,5.66.14,1.07,0,2.13-.02,3.17-.05,12.99-.38,26.82-2.94,41.1-7.62,22.43-7.39,38.6-17.59,41.61-19.56l.08-.05c.49-.31,3.8-2.68,6.9-5.22,6.63-5.41,7.93-7.97,7.85-10.15-.08-2.24-1.55-6.02-10.53-6.21ZM334.37,261.33c1.49-3.32,7.28-7.53,15.87-11.55,8.62-4.02,19.23-7.54,30.87-10.25-18.75,15.38-35.94,25.17-44.36,25.17-.43,0-.83-.03-1.21-.08-1.2-.16-1.48-.52-1.54-.64-.23-.41-.18-1.45.37-2.66ZM602.59,266.45s-.05,0-.08,0c-.28-.01-.54-.38-.56-.77-.12-2.58,1.79-6.06,5.67-10.34,4-4.31,7.54-6.5,10.53-6.5,1.59,0,2.57.58,3.11,1.86-11.92,13.01-16.74,15.76-18.68,15.76ZM537.54,267.78c.34-.38,1.3-1.13,4.01-2.16.23-.09.46-.17.68-.25-1.78,1.14-3.65,2.17-4.69,2.41ZM583.31,249.52c0,.05-.04.29-.39.87-.33.49-.87.97-1.61,1.45-.75.5-1.79.96-3.11,1.37-.64.21-1.41.36-2.25.45l-.32.04c-.06,0-.12.01-.17.02,2.34-2.89,4.76-4.36,7.23-4.36.48,0,.61.11.61.11,0,0,0,.01.01.05Z"/>
      <path class="cls-1" d="M743.24,246.5c-.06-.73-.41-1.41-.99-1.96l-.02-.02c-.61-.55-1.3-.83-2.03-.83-1.05,0-1.87.49-2.32,1.39-3.42,5.86-7.14,10.89-11.06,14.94h-.01c-3.55,3.83-6.49,5.77-8.75,5.77-.04,0-.06,0-.06,0h0s-.12-.15-.16-.61v-.02s0-.02,0-.02c-.29-2.02.96-6.41,8.55-15.84l.08-.1.05-.12c.27-.64.39-1.23.36-1.74v-.02c-.06-.75-.41-1.4-1.02-1.92-.58-.52-1.22-.78-1.89-.78-.83,0-1.58.33-2.17.95l-.03.03-.03.04c-6.96,8.96-10.07,15.46-9.52,19.88v.03c.28,1.72.96,3.13,2.02,4.19,1.11,1.14,2.51,1.71,4.17,1.71,3.31,0,6.96-1.92,11.08-5.85-1.3,2.87-2.83,6.11-4.63,9.78-.64.33-1.3.64-1.94.94l-.43.2-.03.02c-.38.2-.83.43-1.3.63l-.04.02c-1.05.5-2.11.99-3.15,1.45-2.45,1.09-4.74,2.05-6.82,2.87-1.54.57-2.74,1.05-3.66,1.48-.95.44-1.85.87-2.66,1.26-.74.36-1.5.76-2.27,1.19-.77.41-1.56.94-2.23,1.41-1.77,1.14-3.02,2.38-3.69,3.71-.67,1.33-.93,2.85-.78,4.5.17,2.27,1.17,4.19,2.97,5.69,1.75,1.51,3.95,2.28,6.52,2.28,7.14,0,14.68-7.35,23.06-22.46v-.02s.04-.05.04-.05l2.75-5.21,1.06-1.94.02-.04c1.61-3.29,3.18-6.76,4.66-10.31,1.67-3.93,3.43-8.32,5.22-13.04l.84-2.12c.33-.5.3-1.1.28-1.31v-.02ZM701.46,294.91c-.05-.63.05-1.18.3-1.68.18-.35.62-.92,1.68-1.6.97-.65,2.27-1.36,3.88-2.12,1.87-.89,3.97-1.81,6.24-2.74l6.25-2.66c-5.69,8.79-10.66,13.25-14.8,13.25-2.94,0-3.43-1.31-3.54-2.44Z"/>
      <path class="cls-1" d="M755.14,169.5h.02c.37.13.74.19,1.11.19,1.29,0,2.48-.75,3.04-1.91.65-1.32,1.47-2.85,2.13-4,.48-.85.57-1.87.26-2.79-.3-.88-.94-1.59-1.78-1.96-.13-.07-.24-.12-.33-.15h-.03c-.34-.14-.7-.2-1.07-.2-1.19,0-2.36.69-2.96,1.77-.94,1.69-1.71,3.14-2.31,4.33-.43.87-.47,1.88-.1,2.78.37.9,1.1,1.61,2.03,1.94Z"/>
    </g>
  </g>
</svg>