<svg width="32" height="32" viewBox="0 0 32 32" fill="none" xmlns="http://www.w3.org/2000/svg">
<path d="M29.3333 22.56V26.56C29.3348 26.9314 29.2587 27.2989 29.11 27.6392C28.9612 27.9794 28.743 28.2848 28.4694 28.5358C28.1958 28.7869 27.8727 28.978 27.521 29.097C27.1692 29.2159 26.7964 29.2601 26.4266 29.2267C22.3237 28.7809 18.3826 27.3789 14.92 25.1334C11.6984 23.0862 8.96707 20.3549 6.91995 17.1334C4.66659 13.655 3.26428 9.69469 2.82662 5.57336C2.7933 5.20465 2.83712 4.83304 2.95529 4.48219C3.07345 4.13135 3.26338 3.80895 3.51297 3.53552C3.76257 3.2621 4.06636 3.04364 4.40501 2.89406C4.74365 2.74447 5.10974 2.66704 5.47995 2.66669H9.47995C10.127 2.66033 10.7543 2.88947 11.245 3.3114C11.7356 3.73334 12.0561 4.31929 12.1466 4.96003C12.3154 6.24012 12.6286 7.497 13.08 8.70669C13.2593 9.18393 13.2982 9.70258 13.1918 10.2012C13.0855 10.6998 12.8384 11.1575 12.48 11.52L10.7866 13.2134C12.6847 16.5514 15.4486 19.3153 18.7866 21.2134L20.48 19.52C20.8425 19.1615 21.3002 18.9145 21.7988 18.8082C22.2974 18.7018 22.8161 18.7406 23.2933 18.92C24.503 19.3714 25.7599 19.6845 27.04 19.8534C27.6876 19.9447 28.2792 20.271 28.702 20.77C29.1248 21.2691 29.3495 21.9061 29.3333 22.56Z" stroke="#176968" stroke-width="3" stroke-linecap="round" stroke-linejoin="round"/>
</svg>
