<svg width="32" height="32" viewBox="0 0 32 32" fill="none" xmlns="http://www.w3.org/2000/svg">
  <rect width="32" height="32" rx="16" fill="#0068FF"/>
  <path d="M21.9 19.5c-.58.78-1.52 1.23-2.63 1.23-1.98 0-3.32-1.32-3.32-3.3 0-1.97 1.37-3.28 3.3-3.28 1.06 0 1.92.42 2.51 1.13v-3.96h2.42V20h-2.28v-.5Zm-1.77-1.23c.97 0 1.66-.67 1.66-1.62 0-.97-.69-1.62-1.66-1.62s-1.66.67-1.66 1.62c0 .97.7 1.62 1.66 1.62ZM15.4 12.81l-3.02 6.3h3.38v1.9H9.6v-1.9l3.02-6.3H9.77v-1.9h5.63v1.9Z" fill="#FFFFFF"/>
</svg>

